<?xml version="1.0" encoding="utf-8"?>
<!-- Generator: Adobe Illustrator 18.1.0, SVG Export Plug-In . SVG Version: 6.00 Build 0)  -->
<svg version="1.1" xmlns="http://www.w3.org/2000/svg" xmlns:xlink="http://www.w3.org/1999/xlink" x="0px" y="0px"
	 viewBox="0 0 317.9 80.5" enable-background="new 0 0 317.9 80.5" xml:space="preserve">
<g id="Layer_1">
	<rect x="1.3" y="0.5" fill="#DB2B36" width="79.8" height="80"/>
	<path fill="#FFFFFF" d="M72.3,15.7l-9,14.5c-1,1.6-0.8,2.9-0.4,4.1l13.6,34.8H20.2c-5.1,0-9-4.1-9-8.9l-0.1-46.4c0.1-6,8.9-6.1,9,0
		v43.4c0,1.4,1.2,2.9,2.8,2.9h41.3L53.5,35c-0.3-1-0.5-1.9-0.5-2.9c0-1.1,0.5-2.8,1.2-4.2l9.8-16.2c0.7-1.5,2.2-2.4,3.9-2.5
		c2.4-0.1,4.5,1.6,4.6,4.2C72.6,14,72.5,15.2,72.3,15.7"/>
	<path fill="#FFFFFF" d="M41.2,45V13.9c0-6.1,8.8-6.1,8.9,0v31.4c0,7.2-5.4,11.9-12,11.9c-6.6,0-12-4.9-12-11.9V13.9
		c0-6.1,8.9-6.1,8.9,0V45C35.1,49.1,41.2,49.4,41.2,45"/>
	<path fill="#FFFFFF" d="M126.1,9.4v35.3h-9.9V17.9h-7.1v13.9c0,5.1-0.5,13.4-12.8,13.4c-1.5,0-2.6,0-4.1-0.5v-8.5
		c0.8,0.2,1.5,0.4,2.2,0.4c4.3,0,4.9-2.7,4.9-7.7V9.4H126.1z"/>
	<polygon fill="#FFFFFF" points="141.7,9.5 148.6,24.3 154.2,9.5 164.9,9.5 149.1,44.7 138.5,44.7 143.3,35 130.1,9.5 	"/>
	<polygon fill="#FFFFFF" points="169.6,9.5 179.5,9.5 179.5,24.3 190.1,9.5 201.7,9.5 188.3,26.5 202,44.7 189.7,44.7 179.5,29.6 
		179.5,44.7 169.6,44.7 	"/>
	<path fill="#FFFFFF" d="M257.3,9.6v21l13.6-21h9.6v35.1H271v-21l-13.6,21h-9.6V9.6H257.3z M274.7,2.1c-1.9,4.1-6.4,5.6-10.5,5.6
		c-4.2,0-8.6-1.5-10.5-5.6l5.6-2.1c0.9,2.4,3.1,3,4.9,3c1.8,0,4-0.6,4.9-3L274.7,2.1z"/>
	<path fill="#FFFFFF" d="M317.9,9.6v35.1h-9.8V18h-7v13.8c0,5.1-0.5,13.3-12.7,13.3c-1.5,0-2.6,0-4.1-0.5v-8.4
		c0.8,0.2,1.5,0.4,2.2,0.4c4.3,0,4.9-2.7,4.9-7.7V9.6H317.9z"/>
	<path fill="#FFFFFF" d="M204.3,27.2c0-9.6,6.2-19,19.3-19c13.2,0,19.3,9.4,19.3,19c0,9.6-6.2,19-19.3,19
		C210.5,46.2,204.3,36.8,204.3,27.2 M232.6,27.2c0-6.9-4.3-10.4-8.9-10.4c-4.7,0-9,3.4-9,10.4c0,6.9,4.3,10.4,9,10.4
		C228.3,37.5,232.6,34.1,232.6,27.2"/>
	<polygon fill="#FFFFFF" points="94.7,60.7 100.5,60.7 100.5,55.4 102.6,55.4 102.6,69 100.5,69 100.5,62.6 94.7,62.6 94.7,69 
		92.6,69 92.6,55.4 94.7,55.4 	"/>
	<polygon fill="#FFFFFF" points="114.1,57.3 108.7,57.3 108.7,60.6 114,60.6 114,62.5 108.7,62.5 108.7,67 114.1,67 114.1,69 
		106.6,69 106.6,55.4 114.1,55.4 	"/>
	<path fill="#FFFFFF" d="M123.4,67h-0.3c-4.3,0-6-2.4-6-5.3c0-5.2,5.2-5.3,6-5.3h0.3v-1.6h2.1v1.6h0.3c0.9,0,6,0.1,6,5.3
		c0,2.9-1.8,5.3-6,5.3h-0.3V69h-2.1V67z M123.4,58.4H123c-2.7,0-3.9,1.5-3.9,3.3c0,1.9,1.2,3.4,3.9,3.4h0.4V58.4z M125.5,65.1h0.4
		c2.7,0,3.9-1.5,3.9-3.4c0-1.8-1.2-3.3-3.9-3.3h-0.4V65.1z"/>
	<polygon fill="#FFFFFF" points="139.2,57.3 139.2,69 137.1,69 137.1,57.3 134,57.3 134,55.4 142.3,55.4 142.3,57.3 	"/>
	<path fill="#FFFFFF" d="M147.9,63.3c-0.7-0.1-1.5-0.4-2.1-0.9c-1-0.8-1.2-1.9-1.2-2.9c0-1.2,0.4-2.1,1-2.8c1.2-1.3,2.7-1.3,3.7-1.3
		h3.4V69h-2.1v-5.4h-0.5l-3.7,5.4h-2.6L147.9,63.3z M149.6,57.3c-0.9,0-1.8,0.1-2.3,0.6c-0.4,0.4-0.6,1.1-0.6,1.6
		c0,0.7,0.3,1.3,0.7,1.6c0.3,0.2,0.8,0.5,2.1,0.5h1.1v-4.3H149.6z"/>
	<polygon fill="#FFFFFF" points="158.9,60.7 164.7,60.7 164.7,55.4 166.8,55.4 166.8,69 164.7,69 164.7,62.6 158.9,62.6 158.9,69 
		156.9,69 156.9,55.4 158.9,55.4 	"/>
	<path fill="#FFFFFF" d="M179,65.7h-5.8l-1.5,3.3h-2.3l6.8-14.4l6.4,14.4h-2.3L179,65.7z M178.1,63.7l-2-4.6l-2.1,4.6H178.1z"/>
	<path fill="#FFFFFF" d="M188.1,63.3c-0.7-0.1-1.5-0.4-2.1-0.9c-1-0.8-1.2-1.9-1.2-2.9c0-1.2,0.4-2.1,1.1-2.8
		c1.2-1.3,2.7-1.3,3.7-1.3h3.4V69h-2.1v-5.4h-0.5l-3.7,5.4h-2.6L188.1,63.3z M189.8,57.3c-0.9,0-1.8,0.1-2.3,0.6
		c-0.4,0.4-0.6,1.1-0.6,1.6c0,0.7,0.3,1.3,0.7,1.6c0.3,0.2,0.8,0.5,2.1,0.5h1.1v-4.3H189.8z"/>
	<polygon fill="#FFFFFF" points="207.5,60.8 212.8,55.4 215.5,55.4 209.4,61.5 215.5,69 212.8,69 207.5,62.4 207.5,69 205.4,69 
		205.4,55.4 207.5,55.4 	"/>
	<path fill="#FFFFFF" d="M231.2,62.2c0,4-3,7.1-7.1,7.1c-4.1,0-7.1-3.1-7.1-7.1c0-4,3-7.1,7.1-7.1C228.2,55.1,231.2,58.2,231.2,62.2
		 M229,62.2c0-3-2-5.1-4.9-5.1c-2.9,0-4.9,2.1-4.9,5.1c0,3,2,5.1,4.9,5.1C227,67.3,229,65.2,229,62.2"/>
	<polygon fill="#FFFFFF" points="233.7,69 236.5,54.3 241.3,64.9 246,54.3 248.6,69 246.5,69 245.1,60.8 241.1,69.6 237.2,60.7 
		235.8,69 	"/>
	<polygon fill="#FFFFFF" points="262.3,55.4 262.3,69 260.2,69 260.2,57.3 254.4,57.3 254.4,69 252.3,69 252.3,55.4 	"/>
	<path fill="#FFFFFF" d="M274.4,65.7h-5.8l-1.5,3.3h-2.3l6.8-14.4l6.4,14.4h-2.3L274.4,65.7z M273.6,63.7l-2-4.6l-2.1,4.6H273.6z"/>
	<polygon fill="#FFFFFF" points="282.8,60.7 288.6,60.7 288.6,55.4 290.7,55.4 290.7,69 288.6,69 288.6,62.6 282.8,62.6 282.8,69 
		280.7,69 280.7,55.4 282.8,55.4 	"/>
	<polygon fill="#FFFFFF" points="303.9,59.8 294.7,69.5 294.7,55.4 296.8,55.4 296.8,64.5 306,54.8 306,69 303.9,69 	"/>
	<path fill="#FFFFFF" d="M313,63.3c-0.7-0.1-1.5-0.4-2.1-0.9c-1-0.8-1.2-1.9-1.2-2.9c0-1.2,0.4-2.1,1.1-2.8c1.2-1.3,2.7-1.3,3.7-1.3
		h3.4V69h-2.1v-5.4h-0.5l-3.7,5.4h-2.6L313,63.3z M314.7,57.3c-0.9,0-1.8,0.1-2.3,0.6c-0.3,0.4-0.6,1.1-0.6,1.6
		c0,0.7,0.3,1.3,0.7,1.6c0.3,0.2,0.8,0.5,2.1,0.5h1.1v-4.3H314.7z"/>
</g>
</svg>
